<?xml version="1.0" encoding="UTF-8" standalone="no"?>
<svg version="1.1" width="1000" height="400" xmlns="http://www.w3.org/2000/svg" xmlns:xlink="http://www.w3.org/1999/xlink">

<!--Blue figure-->
<path style="fill:#0ad" d="m 175,116 c 27,0 115,71 115,143 a 115,113,0,0,1,-230,0 c 0,-72 88,-143 115,-143 z"/>

<!--Orange figure-->
<path style="fill:#e50" 
	d="m 802,157 c 34.5,0 50,-19 95,-19 c 27.5,0 45,20 45,51 c 0,63 -64.5,175 -140,175 
	c -75.5,0 -140,-112 -140,-175 c -0,-31 17.5,-51 45,-51 c 45,0 60.5,19 95,19 z" />

<!--Yellow figure-->
<path style="fill:#fc0" 
	d="m 595,105 c 22.5,0 48,35.5 70,50 c 51,31.5 70,78 70,115 a 140,100,0,0,1,-280,0 
	c 0,-37 19,-83.5 70,-115 c 22,-14.5 47.5,-50 70,-50 z" />

<!--Green figure-->
<path style="fill:#7b2" 
	d="m 382,93 c 6,0 2.4,32.8 26.8,38.4 c 24.4,5.2 37.4,-25.4 42.8,-22.8 c 5.4,2.6 -12.8,30.4 6.4,45.2 
	c 19.6,14.8 45.5,-7.9 49.2,-3.2 c 3.7,4.7 -25.6,22.4 -15.2,43.6 c 10.8,21.2 44.3,11.4 45.6,17.2 c 1.3,5.8 -33.6,9.6 -33.6,33.2 
	c 0,23.6 34.9,27.4 33.6,33.2 c -1.3,5.8 -34.8,-4 -45.6,17.2 c -10.4,21.2 18.9,38.9 15.2,43.6 
	c -3.7,4.7 -29.6,-18.0 -49.2,-3.2 c -19.2,14.8 -1.0,42.6 -6.4,45.2 c -5.4,2.6 -18.4,-28.0 -42.8,-22.8 c -24.4,5.6 -20.8,38.4 -26.8,38.4 
	c -6.0,0 -2.4,-32.8 -26.8,-38.4 c -24.4,-5.2 -37.4,25.4 -42.8,22.8 c -5.4,-2.6 12.8,-30.4 -6.4,-45.2 
	c -19.6,-14.8 -45.5,7.9 -49.2,3.2 c -3.7,-4.7 25.6,-22.4 15.2,-43.6 c -10.8,-21.2 -44.3,-11.4 -45.6,-17.2 c -1.3,-5.8 33.6,-9.6 33.6,-33.2 
	c 0,-23.6 -34.9,-27.4 -33.6,-33.2 c 1.3,-5.8 34.8,4.0 45.6,-17.2 c 10.4,-21.2 -18.9,-38.9 -15.2,-43.6 
	c 3.7,-4.7 29.6,18.0 49.2,3.2 c 19.2,-14.8 1.0,-42.6 6.4,-45.2 c 5.4,-2.6 18.4,28.0 42.8,22.8 c 24.4,-5.6 20.8,-38.4 26.8,-38.4 z" />


<g style="fill:none;stroke:white;stroke-width:24px;stroke-linecap:round">

<!--K-->
<path d="M 142,298 v-96 	M 206,203 l-48,44 	M 208,299 l-48,-46"/>

<!--Y-->
<path d="M 382,299 v-55 	M 346,203 l36,45 	M 418,203 l-36,45"/>

<!--I-->
<path d="M 594,299 v-96"/>

<!--V-->
<path d="M 766,203 l36,96 	M 838,203 l-36,96"/>

</g>



<!--Slogan-->
<g style="fill:#444">

<path id="e" 
	d="M 155,35.3 C 151.5 35.3 148.4 35.9 145.5 37.1 C 142.6 38.3 140.2 
	39.9 138.4 41.8 C 136.4 43.9 134.9 46.1 133.9 48.7 C 132.9 51.2 132.4 53.8 132.4 56.5 C 132.4 58.6 132.7 
	60.6 133.4 62.3 C 134 64.1 135 65.6 136.4 66.9 C 137.7 68.2 139.4 69.3 141.4 70 C 143.5 70.8 145.9 71.1 148.7 71.1 
	C 152.2 71.1 155.6 70.3 158.7 68.5 C 162 66.8 164.6 64.4 166.6 61.5 L 164.1 59.4 C 162.4 61.7 160.6 63.3 158.7 64.4 
	C 156.9 65.4 154.6 65.9 151.9 65.9 C 150.4 65.9 149.1 65.6 148.1 65 C 147.1 64.4 146.3 63.6 145.8 62.6 
	C 145.3 61.7 145 60.6 144.7 59.4 C 144.5 58.1 144.4 57 144.3 56 C 146.9 55.7 149 55.4 150.8 55.1 C 152.6 
	54.8 154.7 54.2 157.2 53.5 C 160.4 52.6 162.9 51.3 164.7 49.5 C 166.6 47.7 167.5 45.6 167.5 43.1 C 167.5 
	40.5 166.4 38.6 164.3 37.3 C 162.2 36 159.1 35.3 155 35.3 z 

	M 152.4 38 C 153.6 38 154.6 38.6 155.3 39.6 C 156 40.6 156.4 42.1 156.4 44.1 
	C 156.4 46 156 47.6 155.3 48.8 C 154.5 50 153.3 50.9 151.6 51.7 C 150.8 52 149.7 52.3 148.4 52.6 C 147.1 
	52.8 145.8 53 144.4 53.2 C 144.9 48.8 145.8 45.2 147.4 42.3 C 149 39.5 150.6 38 152.4 38 z"/>

<path id="v" 
	d="M 204.3 35.3 C 203.6 35.3 202.9 35.4 202.1 35.6 
	C 201.4 35.9 200.7 36.2 200.2 36.6 C 199.5 37.1 198.9 37.7 198.5 38.4 C 198 39.2 197.8 40.1 197.8 41.4 
	C 197.8 42.8 198 44 198.5 44.9 C 199 45.8 199.6 46.5 200.3 47.2 C 200.8 47.7 201.4 48.3 202.1 48.8 C 
	202.9 49.4 203.3 50 203.6 50.5 C 203.7 51.1 203.8 51.6 203.9 52.1 C 203.9 52.5 203.9 52.9 203.9 53.3 
	C 203.9 57.2 202.8 60.4 200.5 62.7 C 198.2 65 195.6 66.1 192.5 66.1 C 190.4 66.1 188.9 65.6 187.9 64.4 
	C 187 63.2 186.5 61.7 186.5 59.7 C 186.5 58.8 186.7 57.6 187.2 56.1 C 187.6 54.5 188 53.2 188.4 52 C 
	188.8 50.7 189.2 49.2 189.6 47.5 C 190 45.8 190.2 44.3 190.2 42.8 C 190.2 40.8 189.5 39.1 188 37.8 C 
	186.6 36.4 184.5 35.7 181.8 35.7 C 180.3 35.7 178.7 36 177 36.5 C 175.3 37.1 173.5 37.7 171.7 38.5 L 170.9 41.5 
	C 171.5 41.3 172.1 41.1 172.9 40.9 C 173.6 40.7 174.4 40.5 175.1 40.5 C 176.5 40.5 177.5 40.8 178.1 41.3 
	C 178.6 41.8 178.9 42.7 178.9 44 C 178.9 45.2 178.7 46.5 178.3 48 C 177.9 49.3 177.5 50.8 177 52.2 C 
	176.5 53.9 176 55.3 175.6 56.6 C 175.3 57.9 175.1 59 175.1 60.1 C 175.1 63.7 176.3 66.4 178.7 68.3 C 
	181.1 70.1 184.3 71.1 188.4 71.1 C 191.4 71.1 194.3 70.4 197.2 69 C 200 67.6 202.6 65.4 204.9 62.4 C 
	206.9 59.8 208.4 56.9 209.4 53.6 C 210.5 50.3 211.1 47 211.1 43.8 C 211.1 41.2 210.5 39.1 209.3 37.6 
	C 208.1 36.1 206.4 35.3 204.3 35.3 z"/>

<use xlink:href="#e" transform="translate(83.5,0)"/>

<path id="r" 
	d="M 284.8 35.3 C 283 35.3 281.3 35.8 279.7 36.7 
	C 278.2 37.7 276.2 39.3 274 41.7 L 273.8 41.7 C 273.3 39.8 272.4 38.3 271.1 37.3 C 269.8 36.2 267.8 35.7 265.1 35.7 
	C 263.6 35.7 262 36 260.3 36.5 C 258.6 37 256.8 37.7 255 38.4 L 254.2 41.5 C 254.8 41.3 255.4 41.1 256.2 40.8 
	C 257 40.6 257.7 40.5 258.4 40.5 C 259.9 40.5 260.9 40.7 261.4 41.2 C 261.9 41.7 262.2 42.6 262.2 43.9 
	C 262.2 44.6 262.1 45.5 261.8 46.5 C 261.6 47.5 261.4 48.3 261.3 49 L 256.6 70 L 267.9 70 L 273.3 45.8 
	C 274.3 44.6 275.4 43.6 276.5 42.7 C 277.5 41.7 278.9 40.9 280.4 40.3 C 279.8 41.7 279.3 42.8 279 43.5 
	C 278.7 44.2 278.6 45.1 278.6 46 C 278.6 47.1 279.1 48 280.1 48.9 C 281.1 49.7 282.4 50.1 284.1 50.1 
	C 285.4 50.1 286.5 50 287.2 49.6 C 287.9 49.2 288.6 48.6 289.3 47.9 C 289.9 47.2 290.3 46.3 290.6 45.4 
	C 290.9 44.4 291 43.4 291 42.4 C 291 40.1 290.5 38.4 289.4 37.2 C 288.3 35.9 286.7 35.3 284.8 35.3 z"/>

<path id="y" 
	d="M 303.4 35.7 C 301.9 35.7 300.3 36 298.6 36.5 C 296.9 37.1 295.1 37.7 293.3 38.5 
	L 292.5 41.5 C 293.1 41.3 293.7 41.1 294.5 40.9 C 295.3 40.7 296 40.5 296.7 40.5 C 298.2 40.5 299.2 40.8 299.7 41.3 
	C 300.2 41.8 300.5 42.7 300.5 44 C 300.5 44.5 300.4 45.3 300.2 46.4 C 299.9 47.5 299.8 48.4 299.6 49 
	L 297 58.3 C 296.7 59.7 296.5 60.7 296.4 61.4 C 296.3 62.2 296.3 62.9 296.3 63.6 C 296.3 65.6 297 67.3 298.4 68.7 
	C 299.8 70.1 301.8 70.8 304.3 70.8 C 306.9 70.8 309.3 70.3 311.5 69.4 C 313.6 68.5 316 66.9 318.6 64.5 
	L 318.8 64.5 C 318.2 67.7 317.4 70.4 316.6 72.6 C 315.7 74.9 314.7 76.8 313.5 78.3 C 312.9 79.1 312.4 79.7 311.9 80.1 
	C 311.5 80.5 311 80.9 310.4 81.2 C 310 81.5 309.4 81.8 308.8 82 C 308.2 82.2 307.7 82.3 307.3 82.4 C 
	307 81.7 306.6 80.8 306 79.7 C 305.5 78.7 304.9 77.7 304.1 76.8 C 303.4 75.9 302.6 75.1 301.6 74.4 C 
	300.6 73.7 299.5 73.4 298.3 73.4 C 296.7 73.4 295.4 73.9 294.5 75 C 293.5 76 293.1 77.2 293.1 78.5 C 
	293.1 79.2 293.2 80 293.6 80.8 C 293.9 81.6 294.5 82.3 295.4 82.9 C 296.4 83.6 297.8 84.2 299.6 84.6 
	C 301.4 85 303.7 85.2 306.4 85.2 C 308.9 85.2 311.3 84.8 313.7 84.2 C 316.1 83.5 318.4 82.4 320.5 80.9 
	C 322.6 79.3 324.5 77.1 326.2 74.4 C 327.8 71.7 329.1 68.3 330 64.2 L 336 36.4 L 335.5 35.8 L 324.7 36.3 
	L 319.5 60.8 C 318.2 62.1 316.7 63.1 315.2 63.9 C 313.7 64.6 312.4 65 311.4 65 C 310.2 65 309.3 64.7 308.7 64.1 
	C 308.2 63.5 307.9 62.7 307.9 61.5 C 307.9 61.1 308 60.5 308.1 59.5 C 308.2 58.6 308.4 57.8 308.7 57 
	L 311.2 48.1 C 311.4 47.2 311.6 46.1 311.7 45 C 311.8 44 311.8 43.2 311.8 42.8 C 311.8 40.8 311.1 39.1 309.6 37.8 
	C 308.2 36.4 306.1 35.7 303.4 35.7 z"/>

<path id="t" 
	d="M 352.4 26.5 L 349.9 36.8 L 343.5 36.8 L 342.7 40.3 L 348.9 40.3 L 344.7 58.5 
	C 344.4 59.7 344.3 60.7 344.1 61.4 C 344 62.2 344 63 344 63.8 C 344 65.9 344.8 67.6 346.4 68.9 C 348.1 
	70.2 350.3 70.9 353 70.9 C 354.7 70.9 356.5 70.6 358.5 70.1 C 360.5 69.6 362.5 68.9 364.6 68.1 L 365.3 65 
	C 364.8 65.2 363.9 65.4 362.7 65.7 C 361.4 65.9 360.5 66.1 359.8 66.1 C 358.3 66.1 357.2 65.8 356.5 65.3 
	C 355.7 64.8 355.4 63.9 355.4 62.6 C 355.4 62.3 355.5 61.8 355.6 60.8 C 355.8 59.9 355.9 59.2 356.1 58.5 
	L 360.2 40.3 L 369.5 40.3 L 370.3 36.8 L 361 36.8 L 363.4 26.5 L 352.4 26.5 z"/>

<path id="h" 
	d="M 394.3 17.1 L 376.3 18 L 375.6 20.5 C 376.6 20.6 377.4 20.7 378.1 20.8 C 378.8 20.9 379.4 21.1 380 21.4 
	C 380.5 21.7 380.9 22.1 381.2 22.6 C 381.5 23.1 381.6 23.7 381.6 24.5 C 381.6 24.8 381.6 25.1 381.6 25.4 
	C 381.5 25.7 381.4 26.1 381.3 26.5 L 371.3 70 L 382.6 70 L 388.2 45.3 C 390 43.7 391.6 42.6 393.1 42 
	C 394.5 41.4 395.6 41.1 396.4 41.1 C 397.6 41.1 398.5 41.4 399.1 42 C 399.6 42.6 399.8 43.4 399.8 44.5 
	C 399.8 45 399.8 45.7 399.6 46.5 C 399.5 47.3 399.3 48.1 399.1 49.1 L 396.6 58.2 C 396.3 59.6 396.1 60.6 396 61.4 
	C 396 62.2 395.9 62.9 395.9 63.5 C 395.9 65.5 396.7 67.2 398.2 68.6 C 399.7 69.9 401.8 70.6 404.6 70.6 
	C 406.3 70.6 407.9 70.4 409.2 69.9 C 410.6 69.4 412.4 68.7 414.6 67.8 L 415.4 64.8 C 415 65 414.4 65.2 413.5 65.5 
	C 412.6 65.7 411.9 65.8 411.2 65.8 C 409.7 65.8 408.7 65.6 408.1 65.1 C 407.5 64.6 407.3 63.7 407.3 62.3 
	C 407.3 61.8 407.3 61 407.5 60 C 407.7 59 407.9 58.1 408.1 57.3 L 410.7 47.7 C 411 46.6 411.2 45.6 411.3 44.7 
	C 411.4 43.7 411.4 43 411.4 42.5 C 411.4 40.5 410.7 38.8 409.3 37.4 C 407.9 36 405.9 35.3 403.4 35.3 
	C 400.7 35.3 398.3 35.8 396 36.9 C 393.7 38 391.5 39.4 389.4 41.3 L 389.2 41.3 L 394.6 17.6 L 394.3 17.1 z"/>

<g id="i">
<path d="M 429.3 35.3 C 427.8 35.3 426.2 35.6 424.6 36.1 C 422.9 36.7 421.1 37.3 419.3 38 L 418.5 41.1 C 419.1 
	40.9 419.7 40.7 420.5 40.5 C 421.2 40.2 422 40.1 422.7 40.1 C 424.2 40.1 425.2 40.4 425.7 40.9 C 426.2 
	41.4 426.5 42.3 426.5 43.5 C 426.5 44.3 426.4 45 426.2 45.9 C 426.1 46.7 425.9 47.6 425.6 48.6 L 422.8 58.6 
	C 422.6 59.6 422.4 60.6 422.3 61.4 C 422.2 62.2 422.1 63.1 422.1 63.8 C 422.1 65.9 422.8 67.6 424.4 68.9 
	C 425.9 70.3 428 70.9 430.7 70.9 C 432.5 70.9 434.1 70.7 435.4 70.2 C 436.8 69.7 438.6 69.1 440.8 68.2 
	L 441.6 65.1 C 441.2 65.3 440.6 65.5 439.7 65.8 C 438.8 66 438.1 66.1 437.4 66.1 C 435.9 66.1 434.9 65.9 434.3 65.4 
	C 433.7 64.9 433.4 64 433.4 62.7 C 433.4 62.2 433.5 61.4 433.7 60.4 C 433.9 59.3 434.1 58.4 434.3 57.6 
	L 437.1 47.7 C 437.4 46.8 437.6 45.8 437.7 44.7 C 437.8 43.6 437.8 42.8 437.8 42.4 C 437.8 40.3 437.1 38.6 435.6 37.3 
	C 434.1 36 432.1 35.3 429.3 35.3 z"/>
<circle cx="435.6" cy="23.4" r="6.3"/>
</g>

<path id="n" 
	d="M 478.8 35.3 C 476.2 35.3 473.6 35.9 471.2 37 C 468.9 38.1 466.6 39.7 464.3 41.7 
	L 464.1 41.7 C 463.6 39.8 462.8 38.3 461.4 37.3 C 460.1 36.2 458.1 35.7 455.4 35.7 C 453.9 35.7 452.3 36 450.6 36.5 
	C 448.9 37 447.2 37.7 445.3 38.4 L 444.6 41.5 C 445.1 41.3 445.8 41.1 446.5 40.8 C 447.3 40.6 448 40.5 448.8 40.5 
	C 450.2 40.5 451.1 40.8 451.7 41.3 C 452.2 41.7 452.5 42.6 452.5 43.9 C 452.5 44.6 452.4 45.5 452.2 46.5 
	C 451.9 47.5 451.8 48.3 451.6 49 L 446.8 70 L 458.1 70 L 463.7 45.3 C 465.5 43.7 467.1 42.6 468.6 42 
	C 470 41.4 471.1 41.1 471.9 41.1 C 473.1 41.1 474 41.4 474.5 42 C 475.1 42.6 475.3 43.4 475.3 44.5 C 
	475.3 45 475.3 45.7 475.1 46.5 C 475 47.3 474.8 48.1 474.6 49.1 L 472.1 58.2 C 471.8 59.5 471.6 60.6 471.5 61.4 
	C 471.5 62.3 471.5 63 471.5 63.5 C 471.5 65.5 472.2 67.2 473.7 68.6 C 475.2 69.9 477.3 70.6 480 70.6 
	C 481.8 70.6 483.4 70.4 484.7 69.9 C 486.1 69.4 487.9 68.7 490.1 67.8 L 490.9 64.8 C 490.5 65 489.9 65.2 489 65.4 
	C 488.1 65.6 487.4 65.8 486.7 65.8 C 485.2 65.8 484.2 65.5 483.6 65 C 483 64.6 482.7 63.7 482.7 62.3 
	C 482.7 61.8 482.8 61 483 60 C 483.2 59 483.4 58.1 483.6 57.3 L 486.2 47.7 C 486.5 46.6 486.7 45.6 486.8 44.7 
	C 486.9 43.7 486.9 43 486.9 42.5 C 486.9 40.5 486.2 38.8 484.8 37.4 C 483.3 36 481.4 35.3 478.8 35.3 z"/>

<path id="g" 
	d="m 515.5,35.3 c -2.8,0 -5.5,0.6 -8,1.8 -2.5,1.2 -4.7,2.8 -6.6,4.8 -1.8,2.1 -3.3,4.5 -4.4,7.2 -1.1,2.7 
	-1.6,5.6 -1.6,8.6 0,4.1 1,7.3 3.1,9.6 2.2,2.3 5.2,3.5 9.2,3.5 1.4,0 2.5,-0.2 3.4,-0.4 1,-0.3 1.9,-0.7 
	3,-1.2 0.8,-0.3 1.7,-0.8 2.4,-1.3 0.8,-0.5 1.4,-1 2,-1.5 h 0.3 c -0.7,3.6 -1.5,6.3 -2.4,8.2 -0.8,2 -1.6,3.5 
	-2.6,4.6 -0.9,1.1 -1.9,1.9 -3,2.3 -1,0.4 -2,0.7 -3.1,0.9 -0.3,-0.7 -0.7,-1.6 -1.3,-2.7 -0.5,-1.1 -1.2,-2.1 
	-1.8,-2.9 -0.7,-0.9 -1.6,-1.7 -2.6,-2.4 -0.9,-0.7 -2,-1 -3.3,-1 -1.6,0 -2.9,0.5 -3.8,1.6 -0.9,1 -1.4,2.2 
	-1.4,3.5 0,0.7 0.2,1.5 0.5,2.3 0.3,0.8 1,1.5 1.9,2.1 0.9,0.7 2.2,1.2 4,1.6 1.8,0.5 4.1,0.7 6.9,0.7 2.6,0 
	5.1,-0.3 7.5,-1 2.3,-0.6 4.6,-1.7 6.8,-3.3 2.2,-1.6 4,-3.8 5.7,-6.5 1.6,-2.7 2.8,-6.1 3.8,-10.2 L 535.9,36.4 
	535.4,35.8 525,38 c -1.2,-0.9 -2.5,-1.6 -4.1,-2 -1.6,-0.5 -3.4,-0.7 -5.4,-0.7 z 

	m 2,3.4 c 3.6,0.2 5.9,2.3 5.3,5.3 l -3.7,18.4 c -2.9,2.4 -5.6,3.9 -8.9,2.6 -0.7,-0.3 -1.3,-0.9 -1.8,-1.6 
	-0.5,-0.7 -0.8,-1.5 -1,-2.5 -0.6,-3.4 -0.2,-7.1 0.5,-10.2 0.6,-2.4 1.3,-4.4 2.2,-6.2 1.7,-2.8 4.1,-5.8 7.4,-5.8 z"/>



<path id="s" 
	d="M 579.6 35.3 C 576.7 35.3 574.1 35.6 572 36.3 C 569.8 36.9 568 37.7 566.6 38.8 
	C 565.2 39.9 564.1 41 563.4 42.3 C 562.8 43.6 562.4 45 562.4 46.4 C 562.4 48.9 563.2 51 564.8 52.6 C 
	566.5 54.3 568.6 55.6 571.4 56.5 C 572.4 56.8 573.4 57.2 574.4 57.6 C 575.5 58 576.3 58.4 577 58.8 C 
	577.6 59.2 578.2 59.7 578.5 60.3 C 579 60.9 579.2 61.6 579.2 62.4 C 579.2 64.3 578.5 65.8 577.2 67 C 
	575.9 68.1 573.9 68.6 571.3 68.6 C 571.2 68 570.9 67.2 570.5 66 C 570.1 64.8 569.6 63.7 569.1 62.7 C 
	568.5 61.6 567.7 60.8 566.8 60.1 C 565.8 59.3 564.7 59 563.3 59 C 561.7 59 560.4 59.5 559.4 60.5 C 558.4 
	61.5 557.9 62.6 557.9 63.9 C 557.9 64.7 558.1 65.5 558.5 66.3 C 558.9 67.1 559.7 67.9 560.8 68.6 C 561.9 
	69.4 563.4 70 565.2 70.4 C 567.1 70.9 569.5 71.1 572.4 71.1 C 575.6 71.1 578.2 70.8 580.2 70.3 C 582.3 
	69.7 584.1 68.9 585.7 67.8 C 587.1 66.8 588.1 65.6 588.9 64.1 C 589.7 62.5 590.1 61 590.1 59.3 C 590.1 
	56.8 589.3 54.8 587.7 53.3 C 586.1 51.8 583.8 50.4 580.7 49.4 C 579.4 48.9 578.2 48.5 577.3 48.2 C 576.4 
	47.8 575.7 47.4 575.1 47 C 574.6 46.6 574.1 46.2 573.8 45.6 C 573.5 45.1 573.4 44.3 573.4 43.4 C 573.4 
	41.8 574 40.5 575.3 39.4 C 576.7 38.4 578.1 37.8 579.7 37.7 C 579.9 38.4 580.2 39.2 580.5 40.3 C 580.8 
	41.3 581.2 42.2 581.8 43.2 C 582.3 44.1 583 44.9 583.9 45.6 C 584.8 46.3 585.9 46.7 587.2 46.7 C 588.8 
	46.7 590 46.2 590.9 45.3 C 591.9 44.4 592.4 43.3 592.4 42.1 C 592.4 40.8 592 39.8 591.3 38.9 C 590.7 
	38 589.7 37.3 588.5 36.7 C 587.2 36.2 585.9 35.8 584.4 35.6 C 582.9 35.4 581.3 35.3 579.6 35.3 z"/>

<use xlink:href="#t" transform="translate(255.4,0)"/>

<path id="a" 
	d="M 647.6 35.3 C 644.8 35.3 642.1 35.9 639.6 37.1 C 637.1 38.3 634.9 39.9 633 42 C 631.1 44 629.6 46.4 628.5 49.2 C 
	627.4 51.9 626.8 54.8 626.8 58 C 626.8 62 627.8 65.2 629.8 67.6 C 631.8 69.9 634.8 71.1 638.8 71.1 C 
	640.1 71.1 641.2 70.9 642.3 70.5 C 643.3 70.2 644.4 69.8 645.3 69.3 C 646.4 68.7 647.3 68.2 648 67.6 
	C 648.7 67 649.5 66.4 650.3 65.7 L 650.6 65.7 C 651.1 67.2 652.1 68.4 653.5 69.3 C 654.9 70.2 656.8 70.7 659.1 70.7 
	C 660.9 70.7 662.5 70.5 663.8 70 C 665.2 69.5 667 68.8 669.2 67.9 L 670 64.9 C 669.6 65 669 65.2 668.1 65.5 
	C 667.2 65.7 666.4 65.9 665.8 65.9 C 664.3 65.9 663.3 65.6 662.7 65.1 C 662.1 64.6 661.8 63.7 661.8 62.4 
	C 661.8 61.9 661.9 61.1 662.1 60.1 C 662.3 59 662.5 58.1 662.7 57.4 L 667.7 36.4 L 667.3 35.8 L 656.8 38 
	C 655.8 37.2 654.5 36.5 653 36 C 651.4 35.5 649.7 35.3 647.6 35.3 z 

	M 649.7 38.7 C 650.6 38.7 651.5 38.9 652.1 39.2 C 652.8 39.5 653.3 
	39.9 653.7 40.5 C 654.1 41 654.3 41.6 654.4 42.3 C 654.6 43 654.6 43.6 654.6 44.1 L 650.3 62.6 C 649.4 
	63.5 648.5 64.3 647.5 64.9 C 646.5 65.6 645.5 65.9 644.4 65.9 C 643.4 65.9 642.5 65.7 641.8 65.3 C 641.1 
	64.9 640.6 64.3 640.2 63.6 C 639.8 63 639.5 62.2 639.3 61.2 C 639.1 60.3 639.1 59.2 639.1 58.1 C 639.1 
	55.6 639.3 53.2 639.9 50.9 C 640.4 48.5 641.2 46.4 642.1 44.7 C 643.1 42.9 644.2 41.4 645.5 40.4 C 646.8 
	39.3 648.2 38.7 649.7 38.7 z"/>

<use xlink:href="#r" transform="translate(418.4,0)"/>
<use xlink:href="#t" transform="translate(370.6,0)"/>
<use xlink:href="#s" transform="translate(182.2,0)"/>



<use xlink:href="#i" transform="translate(378.2,0)"/>
<use xlink:href="#n" transform="translate(378.2,0)"/>

</g>

</svg>